<svg version="1.1" id="Layer_1" xmlns="http://www.w3.org/2000/svg" xmlns:xlink="http://www.w3.org/1999/xlink" x="0px" y="0px"
	 width="100%" viewBox="0 0 88 60" enable-background="new 0 0 88 60" xml:space="preserve">
<path fill="#FBFCF9" opacity="1.000000" stroke="none" 
	d="
M62.000004,61.000000 
	C41.333332,61.000000 21.166666,61.000000 1.000000,61.000000 
	C1.000000,41.000000 1.000000,21.000000 1.000000,1.000000 
	C30.333334,1.000000 59.666668,1.000000 89.000000,1.000000 
	C89.000000,21.000000 89.000000,41.000000 89.000000,61.000000 
	C80.166672,61.000000 71.333336,61.000000 62.000004,61.000000 
M40.755203,56.938904 
	C45.398922,55.993359 43.043068,53.289612 41.859955,51.452084 
	C36.855164,43.678978 31.634712,36.044720 26.508369,28.382532 
	C32.342117,20.694906 37.922306,13.341408 43.616844,5.837227 
	C36.487156,2.449013 33.000916,3.265897 29.185854,8.680518 
	C24.950583,14.691540 20.771679,20.742277 15.721993,27.990377 
	C15.721993,20.859047 15.446877,15.236457 15.809250,9.655257 
	C16.097891,5.209676 14.461757,3.870832 10.160012,3.877328 
	C6.045485,3.883541 4.741839,5.170616 4.816061,9.359961 
	C5.066702,23.506954 5.103658,37.665272 4.799284,51.810158 
	C4.702844,56.291950 6.467978,57.106190 10.331266,57.095726 
	C14.264485,57.085075 16.082115,56.084827 15.820756,51.673176 
	C15.437300,45.200611 15.721985,38.688465 15.721985,32.193184 
	C20.931076,38.488792 25.394438,44.702412 29.068422,51.352165 
	C31.632744,55.993469 34.939732,57.784683 40.755203,56.938904 
M50.976662,45.775421 
	C50.376080,46.758888 49.544041,47.670616 49.213280,48.737717 
	C47.361671,54.711426 49.080463,56.996597 55.294636,56.999779 
	C63.443306,57.003948 71.597763,56.820755 79.738014,57.082676 
	C83.379654,57.199852 84.323555,55.814442 84.278419,52.474758 
	C84.233315,49.137417 83.232979,47.722660 79.610504,47.917896 
	C73.924835,48.224331 68.210518,47.999237 62.508327,47.999237 
	C64.505989,44.607826 67.227303,42.613083 69.305763,40.088989 
	C73.289986,35.250515 77.790344,30.542257 80.496407,25.007421 
	C86.138687,13.466988 79.378670,3.163491 66.614220,3.093641 
	C63.219543,3.075065 59.691525,3.810801 56.446575,4.876015 
	C49.325176,7.213746 48.495247,9.285776 50.889656,16.872841 
	C53.734825,15.641547 56.470173,14.030094 59.424698,13.264655 
	C66.435425,11.448360 70.818718,15.674383 68.856232,22.552650 
	C67.931190,25.794817 66.082787,28.988972 63.936024,31.620064 
	C60.057411,36.373737 55.640648,40.688324 50.976662,45.775421 
z"/>
<path fill="#07070C" opacity="1.000000" stroke="none" 
	d="
M40.356354,56.963470 
	C34.939732,57.784683 31.632744,55.993469 29.068422,51.352165 
	C25.394438,44.702412 20.931076,38.488792 15.721985,32.193184 
	C15.721985,38.688465 15.437300,45.200611 15.820756,51.673176 
	C16.082115,56.084827 14.264485,57.085075 10.331266,57.095726 
	C6.467978,57.106190 4.702844,56.291950 4.799284,51.810158 
	C5.103658,37.665272 5.066702,23.506954 4.816061,9.359961 
	C4.741839,5.170616 6.045485,3.883541 10.160012,3.877328 
	C14.461757,3.870832 16.097891,5.209676 15.809250,9.655257 
	C15.446877,15.236457 15.721993,20.859047 15.721993,27.990377 
	C20.771679,20.742277 24.950583,14.691540 29.185854,8.680518 
	C33.000916,3.265897 36.487156,2.449013 43.616844,5.837227 
	C37.922306,13.341408 32.342117,20.694906 26.508369,28.382532 
	C31.634712,36.044720 36.855164,43.678978 41.859955,51.452084 
	C43.043068,53.289612 45.398922,55.993359 40.356354,56.963470 
z"/>
<path fill="#060305" opacity="1.000000" stroke="none" 
	d="
M51.212631,45.480843 
	C55.640648,40.688324 60.057411,36.373737 63.936024,31.620064 
	C66.082787,28.988972 67.931190,25.794817 68.856232,22.552650 
	C70.818718,15.674383 66.435425,11.448360 59.424698,13.264655 
	C56.470173,14.030094 53.734825,15.641547 50.889656,16.872841 
	C48.495247,9.285776 49.325176,7.213746 56.446575,4.876015 
	C59.691525,3.810801 63.219543,3.075065 66.614220,3.093641 
	C79.378670,3.163491 86.138687,13.466988 80.496407,25.007421 
	C77.790344,30.542257 73.289986,35.250515 69.305763,40.088989 
	C67.227303,42.613083 64.505989,44.607826 62.508327,47.999237 
	C68.210518,47.999237 73.924835,48.224331 79.610504,47.917896 
	C83.232979,47.722660 84.233315,49.137417 84.278419,52.474758 
	C84.323555,55.814442 83.379654,57.199852 79.738014,57.082676 
	C71.597763,56.820755 63.443306,57.003948 55.294636,56.999779 
	C49.080463,56.996597 47.361671,54.711426 49.213280,48.737717 
	C49.544041,47.670616 50.376080,46.758888 51.212631,45.480843 
z"/>
</svg>