<?xml version="1.0" standalone="no"?>
<!DOCTYPE svg PUBLIC "-//W3C//DTD SVG 20010904//EN"
 "http://www.w3.org/TR/2001/REC-SVG-20010904/DTD/svg10.dtd">
<svg version="1.0" xmlns="http://www.w3.org/2000/svg"
 width="69.000000pt" height="69.000000pt" viewBox="0 0 69.000000 69.000000"
 preserveAspectRatio="xMidYMid meet">

<g transform="translate(0.000000,69.000000) scale(0.100000,-0.100000)"
fill="#000000" stroke="none">
<path d="M271 650 c-49 -21 -84 -55 -107 -104 -31 -67 -30 -111 5 -180 l28
-56 -48 -36 c-55 -40 -119 -153 -119 -210 l0 -34 315 0 315 0 0 34 c0 57 -64
170 -119 210 l-48 36 28 56 c35 69 36 113 5 181 -34 72 -87 106 -170 110 -33
2 -72 -2 -85 -7z m172 -63 c127 -97 50 -296 -110 -284 -126 9 -191 143 -120
247 50 75 159 92 230 37z m-131 -329 c30 -8 48 -7 88 6 44 14 53 15 78 2 54
-29 116 -107 136 -173 l7 -23 -276 0 -276 0 7 23 c14 46 44 93 81 128 50 47
73 60 98 53 11 -3 37 -10 57 -16z"/>
</g>
</svg>
